<?xml version="1.0" encoding="UTF-8" standalone="no"?>
<!DOCTYPE svg PUBLIC "-//W3C//DTD SVG 1.1//EN" "http://www.w3.org/Graphics/SVG/1.1/DTD/svg11.dtd">
<svg width="100%" height="100%" viewBox="0 0 48 48" version="1.1" xmlns="http://www.w3.org/2000/svg" xmlns:xlink="http://www.w3.org/1999/xlink" xml:space="preserve" xmlns:serif="http://www.serif.com/" style="fill-rule:evenodd;clip-rule:evenodd;stroke-linejoin:round;stroke-miterlimit:1.41421;">
    <g id="Expanded">
        <path d="M44,48L4,48C1.794,48 0,46.206 0,44L0,14C0,11.794 1.794,10 4,10L24,10C24.552,10 25,10.448 25,11C25,11.552 24.552,12 24,12L4,12C2.897,12 2,12.897 2,14L2,44C2,45.103 2.897,46 4,46L44,46C45.103,46 46,45.103 46,44L46,14C46,12.897 45.103,12 44,12C43.448,12 43,11.552 43,11C43,10.448 43.448,10 44,10C46.206,10 48,11.794 48,14L48,44C48,46.206 46.206,48 44,48Z" style="fill:white;fill-rule:nonzero;"/>
        <path d="M44,44L10,44L10,14L20,14C20.552,14 21,14.448 21,15C21,15.552 20.552,16 20,16L12,16L12,42L42,42L42,16L40,16C39.448,16 39,15.552 39,15C39,14.448 39.448,14 40,14L44,14L44,44Z" style="fill:white;fill-rule:nonzero;"/>
        <path d="M8,42L0,42L0,16L8,16L8,42ZM2,40L6,40L6,18L2,18L2,40Z" style="fill:white;fill-rule:nonzero;"/>
        <path d="M17.44,27.56L20.079,19.263L38.071,1.272C39.582,-0.24 42.217,-0.24 43.728,1.272C45.288,2.832 45.288,5.369 43.728,6.928L25.737,24.92L17.44,27.56ZM21.838,20.333L20.518,24.481L24.666,23.161L42.314,5.515C43.094,4.735 43.094,3.467 42.314,2.687C41.558,1.931 40.241,1.931 39.485,2.687L21.838,20.333Z" style="fill:white;fill-rule:nonzero;"/>
        <rect x="1" y="24" width="6" height="2" style="fill:white;"/>
        <rect x="1" y="32" width="6" height="2" style="fill:white;"/>
        <path d="M41.606,8.636C41.35,8.636 41.094,8.538 40.899,8.343L36.656,4.1C36.265,3.709 36.265,3.077 36.656,2.686C37.047,2.295 37.679,2.295 38.07,2.686L42.313,6.929C42.704,7.32 42.704,7.952 42.313,8.343C42.118,8.539 41.862,8.636 41.606,8.636Z" style="fill:white;fill-rule:nonzero;"/>
        <path d="M35.95,14.293C35.694,14.293 35.438,14.195 35.243,14L31,9.757C30.609,9.366 30.609,8.734 31,8.343C31.391,7.952 32.023,7.952 32.414,8.343L36.657,12.586C37.048,12.977 37.048,13.609 36.657,14C36.461,14.195 36.206,14.293 35.95,14.293Z" style="fill:white;fill-rule:nonzero;"/>
        <path d="M25.202,25.041C24.946,25.041 24.69,24.943 24.495,24.748L20.252,20.505C19.861,20.114 19.861,19.482 20.252,19.091C20.643,18.7 21.275,18.7 21.666,19.091L25.909,23.334C26.3,23.725 26.3,24.357 25.909,24.748C25.713,24.943 25.458,25.041 25.202,25.041Z" style="fill:white;fill-rule:nonzero;"/>
        <path d="M17,29C16.744,29 16.488,28.902 16.293,28.707C15.902,28.316 15.902,27.684 16.293,27.293L18.272,25.314C18.663,24.923 19.295,24.923 19.686,25.314C20.077,25.705 20.077,26.337 19.686,26.728L17.707,28.707C17.512,28.902 17.256,29 17,29Z" style="fill:white;fill-rule:nonzero;"/>
    </g>
</svg>
