<?xml version="1.0" encoding="UTF-8" standalone="no"?>
<!DOCTYPE svg PUBLIC "-//W3C//DTD SVG 1.1//EN" "http://www.w3.org/Graphics/SVG/1.1/DTD/svg11.dtd">
<svg width="100%" height="100%" viewBox="0 0 48 48" version="1.1" xmlns="http://www.w3.org/2000/svg" xmlns:xlink="http://www.w3.org/1999/xlink" xml:space="preserve" xmlns:serif="http://www.serif.com/" style="fill-rule:evenodd;clip-rule:evenodd;stroke-linejoin:round;stroke-miterlimit:1.41421;">
    <path d="M43,42L5,42C2.791,42 1,40.209 1,38L1,10C1,7.791 2.791,6 5,6L43,6C45.209,6 47,7.791 47,10L47,38C47,40.209 45.209,42 43,42ZM12,8L5,8C3.896,8 3,8.896 3,10L3,12L12,12L12,8ZM23,8L14,8L14,12L23,12L23,8ZM34,8L25,8L25,12L34,12L34,8ZM45,10C45,8.896 44.104,8 43,8L36,8L36,12L45,12L45,10ZM45,14L3,14L3,34L45,34L45,14ZM45,36L36,36L36,40L34,40L34,36L25,36L25,40L23,40L23,36L14,36L14,40L12,40L12,36L3,36L3,38C3,39.104 3.896,40 5,40L43,40C44.104,40 45,39.104 45,38L45,36ZM21.621,29.765C21.449,29.904 21.238,30 21,30C20.447,30 20,29.553 20,29L20,19C20,18.448 20.447,18 21,18C21.213,18 21.4,18.082 21.563,18.196L29.334,23.068C29.72,23.205 30,23.566 30,24C30,24.325 29.835,24.601 29.595,24.783L21.621,29.765Z" style="fill:white;stroke:white;stroke-width:1px;"/>
</svg>
