<?xml version="1.0" encoding="UTF-8" standalone="no"?>
<!DOCTYPE svg PUBLIC "-//W3C//DTD SVG 1.1//EN" "http://www.w3.org/Graphics/SVG/1.1/DTD/svg11.dtd">
<svg width="100%" height="100%" viewBox="0 0 32 32" version="1.1" xmlns="http://www.w3.org/2000/svg" xmlns:xlink="http://www.w3.org/1999/xlink" xml:space="preserve" xmlns:serif="http://www.serif.com/" style="fill-rule:evenodd;clip-rule:evenodd;stroke-linecap:round;stroke-linejoin:round;stroke-miterlimit:10;">
    <g id="Layer_2">
        <path d="M23,26L30,26L30,22C28.3,22 27,20.6 27,19C27,17.4 28.3,16 30,16L30,12L23,12" style="fill:none;stroke:white;stroke-width:2px;"/>
        <path d="M20,12L2,12L2,16C3.7,16 5,17.4 5,19C5,20.6 3.7,22 2,22L2,26L20,26" style="fill:none;stroke:white;stroke-width:2px;"/>
        <path d="M23,12L23,14" style="fill:none;stroke:white;stroke-width:2px;"/>
        <path d="M23,24L23,26" style="fill:none;stroke:white;stroke-width:2px;"/>
        <path d="M8,16L18,16" style="fill:none;stroke:white;stroke-width:2px;"/>
        <path d="M13,20L18,20" style="fill:none;stroke:white;stroke-width:2px;"/>
        <path d="M22,6L22,8" style="fill:none;stroke:white;stroke-width:2px;"/>
        <path d="M23,17L23,21" style="fill:none;stroke:white;stroke-width:2px;"/>
        <path d="M26,8L25,9" style="fill:none;stroke:white;stroke-width:2px;"/>
        <path d="M18,8L19,9" style="fill:none;stroke:white;stroke-width:2px;"/>
    </g>
</svg>
