<?xml version="1.0" encoding="UTF-8" standalone="no"?>
<svg width="100%" height="100%" viewBox="0 0 447 100" style="fill-rule:evenodd;clip-rule:evenodd;stroke-linejoin:round;stroke-miterlimit:1.41421;">
    <g transform="matrix(1.64547,0,0,1.64547,-1593.84,-337.839)">
        <g transform="matrix(0.276523,0,0,0.276523,1003.36,64.5756)">
            <path d="M574.46,586.414C574.46,586.414 586.877,602.197 594.252,601.697L632.539,600.498C632.539,600.498 646.935,600.361 642.119,588.742C641.139,586.076 635.996,578.156 631.451,573.939C629.71,572.416 626.227,570.674 619.914,571.326C613.601,571.98 594.444,574.484 591.615,574.811C589.226,575.086 581.602,576.115 578.553,576.334C575.506,576.553 480.508,576.664 466.793,576.664C462.929,576.502 457.876,575.33 454.626,574.248C449.21,572.83 443.793,571.748 440.543,571.164C437.793,570.83 433.123,570.143 430.293,574.498C427.463,578.852 424.592,585.572 423.34,592.266C423.014,594.77 422.048,599.826 429.872,600.32C434.409,600.609 439.739,601.037 443.939,601.248C448.939,601.498 458.689,585.561 458.689,585.561C458.689,585.561 447.376,599.936 443.376,599.561C439.046,599.154 435.271,598.672 432.702,598.145C430.513,597.695 427.313,596.621 428.837,590.09C430.361,583.559 431.729,580.178 432.46,578.998C433.167,577.855 434.71,574.719 440.855,575.184C447.765,575.707 454.627,577.715 459.259,577.986C461.761,578.133 466.879,578.424 469.273,578.424C471.667,578.424 578.117,578.945 578.117,578.945C578.117,578.945 588.158,578.729 591.396,578.512C595.018,578.27 619.697,577.205 619.697,577.205C619.697,577.205 624.648,576.852 628.404,581.586C632.63,586.914 633.574,589.178 634.445,591.137C635.315,593.096 633.847,596.232 630.146,597.104C627.406,597.748 607.411,598.791 595.678,598.998C588.553,599.123 574.46,586.414 574.46,586.414Z" style="fill:rgb(0,15,137);fill-rule:nonzero;stroke:rgb(149,147,146);stroke-width:0.62px;"/>
        </g>
        <g transform="matrix(0.276523,0,0,0.276523,1003.36,64.5756)">
            <path d="M573.044,641.693C573.044,641.693 583.873,633.131 586.998,628.432C588.723,625.807 589.885,620.248 584.18,613.537C578.477,606.826 575.186,603.588 571.906,600.773C569.389,598.613 564.252,595.381 549.447,595.26C534.643,595.141 485.39,595.857 471.46,596.164C467.793,596.332 459.126,597.498 454.793,601.164C451.335,604.09 445.335,612.443 444.144,615.01C442.293,618.998 440.176,624.713 443.915,629.707C448.126,635.332 453.596,638.998 458.626,642.664C458.626,642.664 449.956,632.807 448.626,629.332C447.298,625.857 448.1,621.58 450.293,617.664C452.626,613.498 455.293,610.332 455.293,610.332C455.293,610.332 459.96,603.998 477.011,603.789C481.846,603.73 546.141,602.947 551.895,603.299C558.318,603.691 564.528,604.523 570.215,608.623C575.902,612.721 579.415,617.27 580.732,619.002C582.05,620.734 583.396,624.756 581.665,628.357C579.303,633.271 573.906,640.598 573.044,641.693Z" style="fill:rgb(0,15,137);fill-rule:nonzero;stroke:rgb(149,147,146);stroke-width:0.62px;"/>
        </g>
        <g transform="matrix(0.276523,0,0,0.276523,1003.36,64.5756)">
            <path d="M583.342,574.211C583.342,574.211 616.867,568.822 622.092,568.387C625.356,568.17 629.362,568.379 631.975,570.773C631.975,570.773 647.343,559.137 671.723,554.131C678.58,552.715 693.711,551.408 702.854,552.172C709.82,552.279 748.35,554.348 751.614,554.783C753.793,555.219 761.109,555.09 767.018,552.77C773.875,550.076 785.385,543.137 787.018,541.668C788.242,540.525 789.541,537.176 785.574,533.449C780.242,528.441 769.467,523.219 769.467,523.219C769.467,523.219 764.5,520.096 754.446,519.734C746.854,519.463 738.191,519.316 733.765,519.953C729.221,520.605 726.936,523.138 725.059,526.701C723.635,529.404 720.977,537.531 719.018,544.279C719.018,544.279 724.323,531.627 727.451,527.57C729.617,524.766 732.166,523.581 735.426,523.055C739.997,522.32 748.486,522.482 754.364,522.893C757.875,523.219 762.446,524.198 766.854,527.137C770.549,529.6 774.35,532.686 776.432,534.973C778.365,537.096 780.079,540.035 776.65,542.811C772.421,546.234 765.982,549.559 764.676,550.211C763.369,550.865 758.145,553.477 751.614,553.041C745.084,552.605 707.422,547.164 684.349,548.035C661.273,548.906 651.262,551.518 644.949,553.041C638.635,554.564 590.627,569.83 583.342,574.211Z" style="fill:rgb(0,15,137);fill-rule:nonzero;stroke:rgb(149,147,146);stroke-width:0.62px;"/>
        </g>
        <g transform="matrix(0.276523,0,0,0.276523,1003.36,64.5756)">
            <path d="M610.771,515.381C610.771,515.381 680.213,504.496 747.916,511.789C767.725,513.857 774.883,518.457 783.018,523C788.678,526.162 806.148,536.715 806.148,536.715C806.148,536.715 787.807,526.646 781.223,523.219C773.408,519.148 766.854,515.49 747.589,513.422C727.07,511.219 659.425,508.217 610.771,515.381Z" style="fill:rgb(0,15,137);fill-rule:nonzero;stroke:rgb(149,147,146);stroke-width:0.62px;"/>
        </g>
        <g transform="matrix(0.276523,0,0,0.276523,1003.36,64.5756)">
            <path d="M709.059,543.791L715.588,527.789C715.588,527.789 719.18,518.32 709.059,517.014C698.936,515.707 671.355,510.666 617.629,516.688C598.689,518.811 594.934,520.443 586.281,523.545C578.843,526.211 557.546,538.482 550.035,544.117C550.035,544.117 576.322,529.422 588.403,525.096C599.494,521.125 614.363,519.302 620.24,518.974C626.118,518.646 667.18,513.912 707.752,520.279C711.099,521.096 713.774,522.707 712.16,528.688C710.527,534.729 709.588,540.238 709.059,543.791Z" style="fill:rgb(0,15,137);fill-rule:nonzero;stroke:rgb(149,147,146);stroke-width:0.62px;"/>
        </g>
        <g transform="matrix(0.276523,0,0,0.276523,1003.36,64.5756)">
            <path d="M775.344,558.646C775.344,558.646 791.182,546.076 805.059,541.668C811.1,539.545 816.922,540.742 822.202,541.668C827.187,542.539 839.998,545.912 846.529,548.688C844.516,548.254 829.549,546.076 816.271,546.945C811.373,547.109 804.242,548.688 799.834,549.83C795.426,550.973 780.242,555.709 775.344,558.646Z" style="fill:rgb(0,15,137);fill-rule:nonzero;stroke:rgb(149,147,146);stroke-width:0.62px;"/>
        </g>
        <g transform="matrix(0.276523,0,0,0.276523,1003.36,64.5756)">
            <path d="M722.772,628.363L813.549,626.404C813.549,626.404 796.896,620.689 792.324,618.24C789.712,617.26 780.973,613.336 770.119,616.607C758.201,620.199 726.69,627.709 722.772,628.363Z" style="fill:rgb(0,15,137);fill-rule:nonzero;stroke:rgb(149,147,146);stroke-width:0.62px;"/>
        </g>
        <g transform="matrix(0.276523,0,0,0.276523,1003.36,64.5756)">
            <path d="M660.404,581.342C660.404,581.342 667.697,567.953 684.131,566.756C691.426,565.994 706.01,569.805 713.41,583.52C720.624,596.887 720.16,606.484 719.18,615.627C718.201,624.771 712.977,640.443 701.875,649.26C702.201,648.934 715.588,634.35 716.568,614.975C717.221,596.252 712.323,588.525 709.385,583.953C706.445,579.383 698.392,571.436 685.221,570.893C678.689,570.455 667.262,572.852 660.404,581.342Z" style="fill:rgb(0,15,137);fill-rule:nonzero;stroke:rgb(149,147,146);stroke-width:0.62px;"/>
        </g>
        <g transform="matrix(0.276523,0,0,0.276523,1003.36,64.5756)">
            <path d="M829.066,647.604C829.066,647.604 826.218,601.969 833.189,574.631C835.09,565.918 843.807,561.172 846.125,586.223C848.442,611.273 845.971,637.311 844.863,644.725C844.854,644.08 845.114,642.9 845.114,642.9L846.789,641.217C846.789,641.217 849.74,605.033 846.684,580.746C845.574,571.436 842.646,562.369 837.508,562.771C833.975,563.146 830.754,567.193 829.026,575.875C826.74,587.381 825.672,608.303 826.43,622.658C826.547,630.16 827.547,642.092 829.066,647.604Z" style="fill:rgb(0,15,137);fill-rule:nonzero;stroke:rgb(149,147,146);stroke-width:0.62px;"/>
        </g>
        <g transform="matrix(0.276523,0,0,0.276523,1003.36,64.5756)">
            <path d="M460.96,573.664C460.96,573.664 446.543,569.914 441.376,568.748C435.21,567.414 432.821,569.293 430.644,570.164C432.604,567.715 456.522,549.664 545.838,548.18C531.961,549.158 498.198,556.182 491.327,558.094C480.293,561.164 466.674,567.461 460.96,573.664Z" style="fill:rgb(0,15,137);fill-rule:nonzero;stroke:rgb(149,147,146);stroke-width:0.62px;"/>
        </g>
        <g transform="matrix(0.276523,0,0,0.276523,1003.36,64.5756)">
            <path d="M700.568,545.031C700.568,545.031 612.404,542.42 555.913,546.664C555.913,546.664 639.67,545.357 700.568,545.031Z" style="fill:rgb(0,15,137);fill-rule:nonzero;stroke:rgb(149,147,146);stroke-width:0.62px;"/>
        </g>
        <g transform="matrix(0.276523,0,0,0.276523,1003.36,64.5756)">
            <path d="M596.793,612.332L637.46,610.332C637.46,610.332 647.877,610.332 646.21,617.916L642.96,629.416C640.127,638.498 625.627,638.332 625.627,638.332L592.627,639.498C592.627,639.498 616.465,636.699 625.46,635.332C629.293,634.748 633.959,634.416 637.293,628.748C638.282,627.066 639.661,620.74 640.21,617.916C640.793,614.916 637.804,612.957 635.043,612.916C624.043,612.748 596.793,612.332 596.793,612.332Z" style="fill:rgb(0,15,137);fill-rule:nonzero;stroke:rgb(149,147,146);stroke-width:0.62px;"/>
        </g>
        <g transform="matrix(0.276523,0,0,0.276523,1003.36,64.5756)">
            <path d="M438.477,611.197C438.477,611.197 429.943,609.865 425.276,609.865C423.508,609.865 419.688,611.197 418.977,615.197C418.213,619.492 419.126,628.635 420.578,632.947C421.161,634.68 422.728,637.363 425.978,637.863C430.285,638.525 443.027,639.146 443.027,639.146C443.027,639.146 431.603,637.357 428.21,635.197C426.959,634.4 425.376,632.861 424.927,631.447C423.876,628.135 422.996,619.209 423.526,615.9C423.793,614.234 424.751,611.787 427.61,611.436L438.477,611.197Z" style="fill:rgb(0,15,137);fill-rule:nonzero;stroke:rgb(149,147,146);stroke-width:0.62px;"/>
        </g>
    </g>
    <g transform="matrix(0.95769,0,0,0.95769,-327.838,-10.1897)">
        <path d="M356.116,17.071L342.322,17.071L342.322,75.593L356.116,75.593L356.116,51.097L377.601,75.593L394.238,75.593L367.82,45.496L392.566,17.071L375.929,17.071L356.116,39.811L356.116,17.071Z" style="fill:rgb(0,15,137);fill-rule:nonzero;"/>
        <path d="M439.809,44.659C439.809,44.659 447.418,42.649 447.418,32.619C447.418,21.753 441.231,17.071 426.689,17.071L401.774,17.071L401.774,75.593L427.358,75.593C443.154,75.593 449.927,70.408 449.927,58.372C449.927,47.17 439.809,44.659 439.809,44.659ZM425.353,66.562L415.571,66.562L415.571,49.514L425.353,49.514C432.454,49.514 435.545,52.189 435.545,58.372C435.545,64.139 432.454,66.562 425.353,66.562ZM415.571,26.102L424.685,26.102C430.532,26.102 433.039,28.274 433.039,33.288C433.039,38.719 430.449,41.142 424.685,41.142L415.571,41.142L415.571,26.102Z" style="fill:rgb(0,15,137);fill-rule:nonzero;"/>
        <path d="M525.352,55.859C523.346,63.635 519.333,66.813 511.474,66.813C500.773,66.813 496.175,60.709 496.175,46.332C496.175,31.955 500.773,25.851 511.474,25.851C519.667,25.851 523.68,29.028 525.352,36.805L539.063,36.805C536.722,21.837 528.529,15.399 511.474,15.399C490.657,15.399 481.712,24.68 481.712,46.332C481.712,67.983 490.657,77.265 511.474,77.265C527.275,77.265 535.552,70.826 539.063,55.859L525.352,55.859Z" style="fill:rgb(0,15,137);fill-rule:nonzero;"/>
        <path d="M573.597,72.081L575.019,75.593L584.718,75.593L584.718,48.503C584.718,37.641 578.949,32.958 565.658,32.958C552.285,32.958 546.599,36.972 546.599,46.337L558.388,46.337C558.305,41.905 560.394,39.982 565.324,39.982C570.254,39.982 572.343,42.156 572.343,47.17L572.343,49.002L565.157,49.002C550.947,49.002 544.927,53.273 544.927,63.221C544.927,72.499 549.609,76.429 560.645,76.429C566.661,76.429 570.922,75.091 573.597,72.081ZM572.343,56.037L572.343,58.125C572.343,64.057 570.755,68.067 563.987,68.067C559.308,68.067 557.302,66.647 557.302,62.553C557.302,56.538 562.065,56.037 566.911,56.037L572.343,56.037Z" style="fill:rgb(0,15,137);fill-rule:nonzero;"/>
        <path d="M615.241,43.491L621.259,43.491L621.259,33.042L615.241,33.042C610.894,33.042 607.885,34.463 605.211,37.723L603.539,33.794L593.843,33.794L593.843,75.593L606.214,75.593L606.214,54.693C606.214,46.835 608.888,43.491 615.157,43.491L615.241,43.491Z" style="fill:rgb(0,15,137);fill-rule:nonzero;"/>
    </g>
    <g transform="matrix(0.503836,0,0,0.503836,-267.605,-141.554)">
        <text x="527.223px" y="468.384px" style="font-family:'FivoSans-BoldOblique', 'Fivo Sans';font-weight:700;font-style:italic;font-size:50px;fill:rgb(0,15,137);">Piask<tspan x="655.673px 684.973px 727.173px " y="468.384px 468.384px 468.384px ">owa</tspan>nie i k<tspan x="897.623px " y="468.384px ">o</tspan>nserw<tspan x="1073.47px " y="468.384px ">a</tspan>cja pojazdó<tspan x="1372.52px " y="468.384px ">w</tspan></text>
    </g>
</svg>
